<mxfile host="app.diagrams.net" agent="Mozilla/5.0 (Windows NT 10.0; Win64; x64) AppleWebKit/537.36 (KHTML, like Gecko) Chrome/134.0.0.0 YaBrowser/25.4.0.0 Safari/537.36" version="27.1.6">
  <diagram name="Страница — 1" id="xGXVruVzidGwG-XF88SP">
    <mxGraphModel dx="2033" dy="1745" grid="1" gridSize="10" guides="1" tooltips="1" connect="1" arrows="1" fold="1" page="1" pageScale="1" pageWidth="827" pageHeight="1169" math="0" shadow="0">
      <root>
        <mxCell id="0" />
        <mxCell id="1" parent="0" />
        <mxCell id="CfZTuR_H0uaaWWNGpMhc-40" style="edgeStyle=none;curved=1;rounded=0;orthogonalLoop=1;jettySize=auto;html=1;entryX=0.5;entryY=0;entryDx=0;entryDy=0;fontSize=12;startSize=8;endSize=8;exitX=0.5;exitY=1;exitDx=0;exitDy=0;" parent="1" source="i2k0hZBqYYZEicYqrPWJ-2" target="CfZTuR_H0uaaWWNGpMhc-43" edge="1">
          <mxGeometry relative="1" as="geometry">
            <mxPoint x="-70" y="436" as="sourcePoint" />
          </mxGeometry>
        </mxCell>
        <mxCell id="CfZTuR_H0uaaWWNGpMhc-42" style="edgeStyle=none;curved=1;rounded=0;orthogonalLoop=1;jettySize=auto;html=1;entryX=0.5;entryY=0;entryDx=0;entryDy=0;fontSize=12;startSize=8;endSize=8;" parent="1" source="CfZTuR_H0uaaWWNGpMhc-43" target="CfZTuR_H0uaaWWNGpMhc-162" edge="1">
          <mxGeometry relative="1" as="geometry">
            <mxPoint x="-70" y="523" as="targetPoint" />
          </mxGeometry>
        </mxCell>
        <mxCell id="CfZTuR_H0uaaWWNGpMhc-43" value="Вход: R_исх - исходное отношение&lt;div&gt;НФ_цель - целевая НФ&lt;/div&gt;" style="shape=parallelogram;perimeter=parallelogramPerimeter;whiteSpace=wrap;html=1;fixedSize=1;" parent="1" vertex="1">
          <mxGeometry x="-200" y="448" width="240" height="60" as="geometry" />
        </mxCell>
        <mxCell id="CfZTuR_H0uaaWWNGpMhc-106" style="edgeStyle=orthogonalEdgeStyle;rounded=0;orthogonalLoop=1;jettySize=auto;html=1;entryX=0.5;entryY=0;entryDx=0;entryDy=0;exitX=0.5;exitY=1;exitDx=0;exitDy=0;" parent="1" source="CfZTuR_H0uaaWWNGpMhc-162" target="CfZTuR_H0uaaWWNGpMhc-105" edge="1">
          <mxGeometry relative="1" as="geometry">
            <mxPoint x="-69.95238095238096" y="573.9999999999998" as="sourcePoint" />
          </mxGeometry>
        </mxCell>
        <mxCell id="CfZTuR_H0uaaWWNGpMhc-94" style="edgeStyle=orthogonalEdgeStyle;rounded=0;orthogonalLoop=1;jettySize=auto;html=1;entryX=0.5;entryY=0;entryDx=0;entryDy=0;exitX=0.5;exitY=1;exitDx=0;exitDy=0;" parent="1" source="CfZTuR_H0uaaWWNGpMhc-167" target="CfZTuR_H0uaaWWNGpMhc-93" edge="1">
          <mxGeometry relative="1" as="geometry">
            <mxPoint x="-80" y="760" as="sourcePoint" />
            <Array as="points">
              <mxPoint x="-80" y="700" />
              <mxPoint x="360" y="700" />
            </Array>
          </mxGeometry>
        </mxCell>
        <mxCell id="CfZTuR_H0uaaWWNGpMhc-81" value="" style="endArrow=none;dashed=1;html=1;rounded=0;entryX=0;entryY=0.5;entryDx=0;entryDy=0;" parent="1" target="CfZTuR_H0uaaWWNGpMhc-90" edge="1">
          <mxGeometry width="50" height="50" relative="1" as="geometry">
            <mxPoint x="-80" y="430.3" as="sourcePoint" />
            <mxPoint x="-20" y="430" as="targetPoint" />
          </mxGeometry>
        </mxCell>
        <mxCell id="CfZTuR_H0uaaWWNGpMhc-215" style="edgeStyle=orthogonalEdgeStyle;rounded=0;orthogonalLoop=1;jettySize=auto;html=1;entryX=0.5;entryY=0;entryDx=0;entryDy=0;" parent="1" source="CfZTuR_H0uaaWWNGpMhc-91" target="i2k0hZBqYYZEicYqrPWJ-6" edge="1">
          <mxGeometry relative="1" as="geometry">
            <mxPoint x="-80" y="1370" as="targetPoint" />
          </mxGeometry>
        </mxCell>
        <mxCell id="CfZTuR_H0uaaWWNGpMhc-91" value="Выход: результат" style="shape=parallelogram;perimeter=parallelogramPerimeter;whiteSpace=wrap;html=1;fixedSize=1;" parent="1" vertex="1">
          <mxGeometry x="-200" y="1303" width="240" height="30" as="geometry" />
        </mxCell>
        <mxCell id="CfZTuR_H0uaaWWNGpMhc-95" style="edgeStyle=orthogonalEdgeStyle;rounded=0;orthogonalLoop=1;jettySize=auto;html=1;exitX=1;exitY=0.5;exitDx=0;exitDy=0;entryX=0.5;entryY=0;entryDx=0;entryDy=0;" parent="1" source="CfZTuR_H0uaaWWNGpMhc-93" target="CfZTuR_H0uaaWWNGpMhc-96" edge="1">
          <mxGeometry relative="1" as="geometry">
            <mxPoint x="389" y="798" as="targetPoint" />
            <Array as="points">
              <mxPoint x="520" y="740" />
              <mxPoint x="520" y="768" />
              <mxPoint x="400" y="768" />
            </Array>
          </mxGeometry>
        </mxCell>
        <mxCell id="CfZTuR_H0uaaWWNGpMhc-97" style="edgeStyle=orthogonalEdgeStyle;rounded=0;orthogonalLoop=1;jettySize=auto;html=1;entryX=0.5;entryY=0;entryDx=0;entryDy=0;" parent="1" source="CfZTuR_H0uaaWWNGpMhc-93" target="CfZTuR_H0uaaWWNGpMhc-107" edge="1">
          <mxGeometry relative="1" as="geometry">
            <mxPoint x="214" y="838" as="targetPoint" />
            <Array as="points">
              <mxPoint x="120" y="740" />
            </Array>
          </mxGeometry>
        </mxCell>
        <mxCell id="CfZTuR_H0uaaWWNGpMhc-93" value="НФ_тек == 1НФ ?" style="rhombus;whiteSpace=wrap;html=1;" parent="1" vertex="1">
          <mxGeometry x="240" y="720" width="240" height="40" as="geometry" />
        </mxCell>
        <mxCell id="CfZTuR_H0uaaWWNGpMhc-100" style="edgeStyle=orthogonalEdgeStyle;rounded=0;orthogonalLoop=1;jettySize=auto;html=1;entryX=0.5;entryY=0;entryDx=0;entryDy=0;" parent="1" source="CfZTuR_H0uaaWWNGpMhc-96" target="CfZTuR_H0uaaWWNGpMhc-99" edge="1">
          <mxGeometry relative="1" as="geometry" />
        </mxCell>
        <mxCell id="CfZTuR_H0uaaWWNGpMhc-96" value="частич_зависимости := найти_част_зависимости(X, F)" style="shape=process;whiteSpace=wrap;html=1;backgroundOutline=1;size=0.05;" parent="1" vertex="1">
          <mxGeometry x="280" y="781.5" width="240" height="36" as="geometry" />
        </mxCell>
        <mxCell id="CfZTuR_H0uaaWWNGpMhc-102" style="edgeStyle=orthogonalEdgeStyle;rounded=0;orthogonalLoop=1;jettySize=auto;html=1;exitX=0.5;exitY=1;exitDx=0;exitDy=0;entryX=0.5;entryY=0;entryDx=0;entryDy=0;" parent="1" source="CfZTuR_H0uaaWWNGpMhc-99" target="CfZTuR_H0uaaWWNGpMhc-101" edge="1">
          <mxGeometry relative="1" as="geometry" />
        </mxCell>
        <mxCell id="CfZTuR_H0uaaWWNGpMhc-99" value="Для каждой чз_i ∈ частич_зависимости" style="shape=loopLimit;whiteSpace=wrap;html=1;" parent="1" vertex="1">
          <mxGeometry x="280" y="831.5" width="240" height="32" as="geometry" />
        </mxCell>
        <mxCell id="CfZTuR_H0uaaWWNGpMhc-104" style="edgeStyle=orthogonalEdgeStyle;rounded=0;orthogonalLoop=1;jettySize=auto;html=1;entryX=0.5;entryY=0;entryDx=0;entryDy=0;" parent="1" source="CfZTuR_H0uaaWWNGpMhc-101" target="CfZTuR_H0uaaWWNGpMhc-103" edge="1">
          <mxGeometry relative="1" as="geometry" />
        </mxCell>
        <mxCell id="CfZTuR_H0uaaWWNGpMhc-101" value="R_i1 := (чз_i.детерминант ∪ чз_i.зависимая, чз_i);&lt;div&gt;R_i2 = (R_исх.атрибуты - (чз_i&lt;span style=&quot;background-color: transparent; color: light-dark(rgb(0, 0, 0), rgb(255, 255, 255));&quot;&gt;.детерминант ∪&amp;nbsp;&lt;/span&gt;чз_i&lt;span style=&quot;background-color: transparent; color: light-dark(rgb(0, 0, 0), rgb(255, 255, 255));&quot;&gt;.зависимая&lt;/span&gt;&lt;span style=&quot;background-color: transparent; color: light-dark(rgb(0, 0, 0), rgb(255, 255, 255));&quot;&gt;),&amp;nbsp;&lt;/span&gt;&lt;/div&gt;&lt;div&gt;&lt;span style=&quot;background-color: transparent; color: light-dark(rgb(0, 0, 0), rgb(255, 255, 255));&quot;&gt;F -&amp;nbsp;&lt;/span&gt;чз_i&lt;span style=&quot;background-color: transparent; color: light-dark(rgb(0, 0, 0), rgb(255, 255, 255));&quot;&gt;)&lt;/span&gt;&lt;/div&gt;" style="rounded=0;whiteSpace=wrap;html=1;" parent="1" vertex="1">
          <mxGeometry x="280" y="878" width="240" height="78.75" as="geometry" />
        </mxCell>
        <mxCell id="CfZTuR_H0uaaWWNGpMhc-115" style="edgeStyle=orthogonalEdgeStyle;rounded=0;orthogonalLoop=1;jettySize=auto;html=1;entryX=0.5;entryY=0;entryDx=0;entryDy=0;" parent="1" source="CfZTuR_H0uaaWWNGpMhc-103" target="CfZTuR_H0uaaWWNGpMhc-133" edge="1">
          <mxGeometry relative="1" as="geometry">
            <mxPoint x="389.0000000000002" y="1015.9999999999995" as="targetPoint" />
          </mxGeometry>
        </mxCell>
        <mxCell id="CfZTuR_H0uaaWWNGpMhc-103" value="&lt;div&gt;результат&amp;nbsp;&lt;span style=&quot;background-color: transparent; color: light-dark(rgb(0, 0, 0), rgb(255, 255, 255));&quot;&gt;← R_i1, R_i2&lt;/span&gt;&lt;/div&gt;" style="rounded=0;whiteSpace=wrap;html=1;" parent="1" vertex="1">
          <mxGeometry x="280" y="976" width="240" height="30" as="geometry" />
        </mxCell>
        <mxCell id="CfZTuR_H0uaaWWNGpMhc-168" style="edgeStyle=orthogonalEdgeStyle;rounded=0;orthogonalLoop=1;jettySize=auto;html=1;entryX=0.5;entryY=0;entryDx=0;entryDy=0;" parent="1" source="CfZTuR_H0uaaWWNGpMhc-105" target="CfZTuR_H0uaaWWNGpMhc-167" edge="1">
          <mxGeometry relative="1" as="geometry" />
        </mxCell>
        <mxCell id="CfZTuR_H0uaaWWNGpMhc-105" value="Пока НФ_тек != НФ_цель" style="shape=loopLimit;whiteSpace=wrap;html=1;" parent="1" vertex="1">
          <mxGeometry x="-200" y="586" width="240" height="40" as="geometry" />
        </mxCell>
        <mxCell id="CfZTuR_H0uaaWWNGpMhc-138" style="edgeStyle=orthogonalEdgeStyle;rounded=0;orthogonalLoop=1;jettySize=auto;html=1;entryX=0.5;entryY=0;entryDx=0;entryDy=0;exitX=1;exitY=0.5;exitDx=0;exitDy=0;" parent="1" source="CfZTuR_H0uaaWWNGpMhc-107" target="CfZTuR_H0uaaWWNGpMhc-109" edge="1">
          <mxGeometry relative="1" as="geometry">
            <Array as="points">
              <mxPoint x="260" y="776" />
              <mxPoint x="260" y="809" />
              <mxPoint x="120" y="809" />
            </Array>
          </mxGeometry>
        </mxCell>
        <mxCell id="CfZTuR_H0uaaWWNGpMhc-139" style="edgeStyle=orthogonalEdgeStyle;rounded=0;orthogonalLoop=1;jettySize=auto;html=1;exitX=0;exitY=0.5;exitDx=0;exitDy=0;entryX=0.5;entryY=0;entryDx=0;entryDy=0;" parent="1" source="CfZTuR_H0uaaWWNGpMhc-107" target="CfZTuR_H0uaaWWNGpMhc-140" edge="1">
          <mxGeometry relative="1" as="geometry">
            <mxPoint x="-164" y="776.0000000000002" as="targetPoint" />
            <mxPoint x="-29" y="776.0000000000002" as="sourcePoint" />
            <Array as="points">
              <mxPoint x="-161" y="776" />
            </Array>
          </mxGeometry>
        </mxCell>
        <mxCell id="CfZTuR_H0uaaWWNGpMhc-220" value="Нет" style="edgeLabel;html=1;align=center;verticalAlign=middle;resizable=0;points=[];" parent="CfZTuR_H0uaaWWNGpMhc-139" vertex="1" connectable="0">
          <mxGeometry x="0.0352" y="-3" relative="1" as="geometry">
            <mxPoint x="-56" y="-7" as="offset" />
          </mxGeometry>
        </mxCell>
        <mxCell id="CfZTuR_H0uaaWWNGpMhc-107" value="НФ_тек == 2НФ ?" style="rhombus;whiteSpace=wrap;html=1;" parent="1" vertex="1">
          <mxGeometry y="756" width="240" height="40" as="geometry" />
        </mxCell>
        <mxCell id="CfZTuR_H0uaaWWNGpMhc-118" style="edgeStyle=orthogonalEdgeStyle;rounded=0;orthogonalLoop=1;jettySize=auto;html=1;entryX=0.5;entryY=0;entryDx=0;entryDy=0;" parent="1" source="CfZTuR_H0uaaWWNGpMhc-108" target="CfZTuR_H0uaaWWNGpMhc-117" edge="1">
          <mxGeometry relative="1" as="geometry" />
        </mxCell>
        <mxCell id="CfZTuR_H0uaaWWNGpMhc-108" value="F_min = найти_мин_покрытие(X_i, F_i)" style="shape=process;whiteSpace=wrap;html=1;backgroundOutline=1;size=0.05;" parent="1" vertex="1">
          <mxGeometry y="863.75" width="240" height="36" as="geometry" />
        </mxCell>
        <mxCell id="CfZTuR_H0uaaWWNGpMhc-116" style="edgeStyle=orthogonalEdgeStyle;rounded=0;orthogonalLoop=1;jettySize=auto;html=1;entryX=0.5;entryY=0;entryDx=0;entryDy=0;exitX=0.5;exitY=1;exitDx=0;exitDy=0;" parent="1" source="CfZTuR_H0uaaWWNGpMhc-109" target="CfZTuR_H0uaaWWNGpMhc-108" edge="1">
          <mxGeometry relative="1" as="geometry">
            <mxPoint x="119.89" y="850" as="sourcePoint" />
            <mxPoint x="119.89" y="867.75" as="targetPoint" />
          </mxGeometry>
        </mxCell>
        <mxCell id="CfZTuR_H0uaaWWNGpMhc-109" value="Для каждой R_i ∈ буф" style="shape=loopLimit;whiteSpace=wrap;html=1;" parent="1" vertex="1">
          <mxGeometry y="822.5" width="240" height="27.5" as="geometry" />
        </mxCell>
        <mxCell id="CfZTuR_H0uaaWWNGpMhc-121" style="edgeStyle=orthogonalEdgeStyle;rounded=0;orthogonalLoop=1;jettySize=auto;html=1;entryX=0.5;entryY=0;entryDx=0;entryDy=0;exitX=0.5;exitY=1;exitDx=0;exitDy=0;" parent="1" source="CfZTuR_H0uaaWWNGpMhc-117" target="CfZTuR_H0uaaWWNGpMhc-120" edge="1">
          <mxGeometry relative="1" as="geometry">
            <mxPoint x="120" y="960" as="sourcePoint" />
          </mxGeometry>
        </mxCell>
        <mxCell id="CfZTuR_H0uaaWWNGpMhc-117" value="Для каждой фз_j ∈ F_min" style="shape=loopLimit;whiteSpace=wrap;html=1;" parent="1" vertex="1">
          <mxGeometry y="915.75" width="240" height="40" as="geometry" />
        </mxCell>
        <mxCell id="CfZTuR_H0uaaWWNGpMhc-127" style="edgeStyle=orthogonalEdgeStyle;rounded=0;orthogonalLoop=1;jettySize=auto;html=1;entryX=0.5;entryY=0;entryDx=0;entryDy=0;exitX=0.5;exitY=1;exitDx=0;exitDy=0;" parent="1" source="CfZTuR_H0uaaWWNGpMhc-120" target="CfZTuR_H0uaaWWNGpMhc-125" edge="1">
          <mxGeometry relative="1" as="geometry" />
        </mxCell>
        <mxCell id="CfZTuR_H0uaaWWNGpMhc-120" value="буф ← синтез(фз_j, X_i)" style="shape=process;whiteSpace=wrap;html=1;backgroundOutline=1;" parent="1" vertex="1">
          <mxGeometry y="969" width="240" height="31" as="geometry" />
        </mxCell>
        <mxCell id="CfZTuR_H0uaaWWNGpMhc-123" value="" style="group" parent="1" vertex="1" connectable="0">
          <mxGeometry y="1013" width="240" height="26" as="geometry" />
        </mxCell>
        <mxCell id="CfZTuR_H0uaaWWNGpMhc-124" value="" style="shape=loopLimit;whiteSpace=wrap;html=1;rotation=-180;" parent="CfZTuR_H0uaaWWNGpMhc-123" vertex="1">
          <mxGeometry width="240.00000000000003" height="26" as="geometry" />
        </mxCell>
        <mxCell id="CfZTuR_H0uaaWWNGpMhc-125" value="&lt;font style=&quot;font-size: 12px;&quot;&gt;конец Для&lt;/font&gt;" style="text;strokeColor=none;fillColor=none;html=1;align=center;verticalAlign=middle;whiteSpace=wrap;rounded=0;fontSize=16;" parent="CfZTuR_H0uaaWWNGpMhc-123" vertex="1">
          <mxGeometry x="36.774193548387096" y="0.0033333333333329662" width="166.45161290322582" height="17.333333333333332" as="geometry" />
        </mxCell>
        <mxCell id="CfZTuR_H0uaaWWNGpMhc-137" style="edgeStyle=orthogonalEdgeStyle;rounded=0;orthogonalLoop=1;jettySize=auto;html=1;entryX=0.5;entryY=1;entryDx=0;entryDy=0;" parent="1" source="CfZTuR_H0uaaWWNGpMhc-128" target="CfZTuR_H0uaaWWNGpMhc-135" edge="1">
          <mxGeometry relative="1" as="geometry" />
        </mxCell>
        <mxCell id="CfZTuR_H0uaaWWNGpMhc-128" value="результат ← удалить_избытки(буф)" style="shape=process;whiteSpace=wrap;html=1;backgroundOutline=1;size=0.05;" parent="1" vertex="1">
          <mxGeometry y="1053" width="240" height="36.5" as="geometry" />
        </mxCell>
        <mxCell id="CfZTuR_H0uaaWWNGpMhc-130" style="edgeStyle=orthogonalEdgeStyle;rounded=0;orthogonalLoop=1;jettySize=auto;html=1;entryX=0.5;entryY=0;entryDx=0;entryDy=0;exitX=0.5;exitY=0;exitDx=0;exitDy=0;" parent="1" source="CfZTuR_H0uaaWWNGpMhc-124" target="CfZTuR_H0uaaWWNGpMhc-128" edge="1">
          <mxGeometry relative="1" as="geometry">
            <mxPoint x="120" y="1040" as="sourcePoint" />
          </mxGeometry>
        </mxCell>
        <mxCell id="CfZTuR_H0uaaWWNGpMhc-131" value="" style="group" parent="1" vertex="1" connectable="0">
          <mxGeometry x="280" y="1020.5" width="240" height="26" as="geometry" />
        </mxCell>
        <mxCell id="CfZTuR_H0uaaWWNGpMhc-214" style="edgeStyle=orthogonalEdgeStyle;rounded=0;orthogonalLoop=1;jettySize=auto;html=1;" parent="CfZTuR_H0uaaWWNGpMhc-131" source="CfZTuR_H0uaaWWNGpMhc-132" edge="1">
          <mxGeometry relative="1" as="geometry">
            <mxPoint x="-360" y="219.5" as="targetPoint" />
            <Array as="points">
              <mxPoint x="120" y="220" />
              <mxPoint x="-360" y="220" />
            </Array>
          </mxGeometry>
        </mxCell>
        <mxCell id="CfZTuR_H0uaaWWNGpMhc-132" value="" style="shape=loopLimit;whiteSpace=wrap;html=1;rotation=-180;" parent="CfZTuR_H0uaaWWNGpMhc-131" vertex="1">
          <mxGeometry width="240.00000000000006" height="26" as="geometry" />
        </mxCell>
        <mxCell id="CfZTuR_H0uaaWWNGpMhc-133" value="&lt;font style=&quot;font-size: 12px;&quot;&gt;конец Для&lt;/font&gt;" style="text;strokeColor=none;fillColor=none;html=1;align=center;verticalAlign=middle;whiteSpace=wrap;rounded=0;fontSize=16;" parent="CfZTuR_H0uaaWWNGpMhc-131" vertex="1">
          <mxGeometry x="36.774193548387096" y="0.0033333333333329662" width="166.45161290322582" height="17.333333333333332" as="geometry" />
        </mxCell>
        <mxCell id="CfZTuR_H0uaaWWNGpMhc-134" value="" style="group" parent="1" vertex="1" connectable="0">
          <mxGeometry y="1103" width="240" height="26" as="geometry" />
        </mxCell>
        <mxCell id="CfZTuR_H0uaaWWNGpMhc-213" style="edgeStyle=orthogonalEdgeStyle;rounded=0;orthogonalLoop=1;jettySize=auto;html=1;exitX=0.5;exitY=0;exitDx=0;exitDy=0;" parent="CfZTuR_H0uaaWWNGpMhc-134" source="CfZTuR_H0uaaWWNGpMhc-135" edge="1">
          <mxGeometry relative="1" as="geometry">
            <mxPoint x="-100" y="127" as="targetPoint" />
            <Array as="points">
              <mxPoint x="120" y="108" />
              <mxPoint x="-100" y="108" />
            </Array>
          </mxGeometry>
        </mxCell>
        <mxCell id="CfZTuR_H0uaaWWNGpMhc-135" value="" style="shape=loopLimit;whiteSpace=wrap;html=1;rotation=-180;" parent="CfZTuR_H0uaaWWNGpMhc-134" vertex="1">
          <mxGeometry width="240.00000000000003" height="26" as="geometry" />
        </mxCell>
        <mxCell id="CfZTuR_H0uaaWWNGpMhc-136" value="&lt;font style=&quot;font-size: 12px;&quot;&gt;конец Для&lt;/font&gt;" style="text;strokeColor=none;fillColor=none;html=1;align=center;verticalAlign=middle;whiteSpace=wrap;rounded=0;fontSize=16;" parent="CfZTuR_H0uaaWWNGpMhc-134" vertex="1">
          <mxGeometry x="36.774193548387096" y="4.333333333333333" width="166.45161290322582" height="17.333333333333332" as="geometry" />
        </mxCell>
        <mxCell id="CfZTuR_H0uaaWWNGpMhc-142" style="edgeStyle=orthogonalEdgeStyle;rounded=0;orthogonalLoop=1;jettySize=auto;html=1;entryX=0.5;entryY=0;entryDx=0;entryDy=0;exitX=1;exitY=0.5;exitDx=0;exitDy=0;" parent="1" source="CfZTuR_H0uaaWWNGpMhc-140" target="CfZTuR_H0uaaWWNGpMhc-141" edge="1">
          <mxGeometry relative="1" as="geometry">
            <Array as="points">
              <mxPoint x="-20" y="815" />
              <mxPoint x="-20" y="839" />
              <mxPoint x="-160" y="839" />
            </Array>
          </mxGeometry>
        </mxCell>
        <mxCell id="CfZTuR_H0uaaWWNGpMhc-194" style="edgeStyle=orthogonalEdgeStyle;rounded=0;orthogonalLoop=1;jettySize=auto;html=1;entryX=0.5;entryY=0;entryDx=0;entryDy=0;" parent="1" source="CfZTuR_H0uaaWWNGpMhc-140" target="CfZTuR_H0uaaWWNGpMhc-178" edge="1">
          <mxGeometry relative="1" as="geometry" />
        </mxCell>
        <mxCell id="CfZTuR_H0uaaWWNGpMhc-140" value="НФ_тек == 3НФ ?" style="rhombus;whiteSpace=wrap;html=1;" parent="1" vertex="1">
          <mxGeometry x="-280" y="794.75" width="240" height="40" as="geometry" />
        </mxCell>
        <mxCell id="CfZTuR_H0uaaWWNGpMhc-144" style="edgeStyle=orthogonalEdgeStyle;rounded=0;orthogonalLoop=1;jettySize=auto;html=1;entryX=0.5;entryY=0;entryDx=0;entryDy=0;" parent="1" source="CfZTuR_H0uaaWWNGpMhc-141" target="CfZTuR_H0uaaWWNGpMhc-143" edge="1">
          <mxGeometry relative="1" as="geometry" />
        </mxCell>
        <mxCell id="CfZTuR_H0uaaWWNGpMhc-141" value="Для каждой R_i ∈ буф" style="shape=loopLimit;whiteSpace=wrap;html=1;" parent="1" vertex="1">
          <mxGeometry x="-280" y="850.5" width="240" height="29.5" as="geometry" />
        </mxCell>
        <mxCell id="CfZTuR_H0uaaWWNGpMhc-158" style="edgeStyle=orthogonalEdgeStyle;rounded=0;orthogonalLoop=1;jettySize=auto;html=1;entryX=0.5;entryY=0;entryDx=0;entryDy=0;" parent="1" source="CfZTuR_H0uaaWWNGpMhc-143" target="CfZTuR_H0uaaWWNGpMhc-146" edge="1">
          <mxGeometry relative="1" as="geometry" />
        </mxCell>
        <mxCell id="CfZTuR_H0uaaWWNGpMhc-143" value="наруш_фз = Анализ(R_i)[1]" style="shape=process;whiteSpace=wrap;html=1;backgroundOutline=1;size=0.05;" parent="1" vertex="1">
          <mxGeometry x="-280" y="894.75" width="240" height="30.5" as="geometry" />
        </mxCell>
        <mxCell id="CfZTuR_H0uaaWWNGpMhc-161" style="edgeStyle=orthogonalEdgeStyle;rounded=0;orthogonalLoop=1;jettySize=auto;html=1;entryX=0.5;entryY=0;entryDx=0;entryDy=0;" parent="1" source="CfZTuR_H0uaaWWNGpMhc-146" target="CfZTuR_H0uaaWWNGpMhc-160" edge="1">
          <mxGeometry relative="1" as="geometry" />
        </mxCell>
        <mxCell id="CfZTuR_H0uaaWWNGpMhc-146" value="Для каждой фз_j ∈ наруш_фз" style="shape=loopLimit;whiteSpace=wrap;html=1;" parent="1" vertex="1">
          <mxGeometry x="-280" y="939" width="240" height="29" as="geometry" />
        </mxCell>
        <mxCell id="CfZTuR_H0uaaWWNGpMhc-166" style="edgeStyle=orthogonalEdgeStyle;rounded=0;orthogonalLoop=1;jettySize=auto;html=1;entryX=0.5;entryY=0;entryDx=0;entryDy=0;" parent="1" source="CfZTuR_H0uaaWWNGpMhc-160" target="CfZTuR_H0uaaWWNGpMhc-163" edge="1">
          <mxGeometry relative="1" as="geometry">
            <Array as="points">
              <mxPoint x="-161" y="1075" />
              <mxPoint x="-161" y="1075" />
            </Array>
          </mxGeometry>
        </mxCell>
        <mxCell id="CfZTuR_H0uaaWWNGpMhc-160" value="R_i_j := (фз_j.детерминант ∪ фз_j.зависимая, фз_j);&lt;div&gt;R_i_j = ((R_i.атрибуты - фз_j&lt;span style=&quot;background-color: transparent; color: light-dark(rgb(0, 0, 0), rgb(255, 255, 255));&quot;&gt;.зависимая&lt;/span&gt;&lt;span style=&quot;background-color: transparent; color: light-dark(rgb(0, 0, 0), rgb(255, 255, 255));&quot;&gt;)&amp;nbsp;&lt;/span&gt;&lt;span style=&quot;background-color: transparent; color: light-dark(rgb(0, 0, 0), rgb(255, 255, 255));&quot;&gt;∪&amp;nbsp;&lt;/span&gt;фз_j&lt;span style=&quot;background-color: transparent; color: light-dark(rgb(0, 0, 0), rgb(255, 255, 255));&quot;&gt;.детерминант&lt;/span&gt;&lt;span style=&quot;background-color: transparent; color: light-dark(rgb(0, 0, 0), rgb(255, 255, 255));&quot;&gt;),&amp;nbsp;&lt;/span&gt;&lt;/div&gt;&lt;div&gt;&lt;span style=&quot;background-color: transparent; color: light-dark(rgb(0, 0, 0), rgb(255, 255, 255));&quot;&gt;F_i -&amp;nbsp;&lt;/span&gt;фз_j&lt;span style=&quot;background-color: transparent; color: light-dark(rgb(0, 0, 0), rgb(255, 255, 255));&quot;&gt;)&lt;/span&gt;&lt;/div&gt;" style="rounded=0;whiteSpace=wrap;html=1;" parent="1" vertex="1">
          <mxGeometry x="-280" y="981" width="240" height="89.5" as="geometry" />
        </mxCell>
        <mxCell id="CfZTuR_H0uaaWWNGpMhc-162" value="НФ_тек := Анализ(R_исх)[0];&lt;div&gt;буф := R_исх&lt;/div&gt;&lt;div&gt;результат := буф&lt;/div&gt;" style="shape=process;whiteSpace=wrap;html=1;backgroundOutline=1;" parent="1" vertex="1">
          <mxGeometry x="-200" y="523" width="240" height="50" as="geometry" />
        </mxCell>
        <mxCell id="CfZTuR_H0uaaWWNGpMhc-172" style="edgeStyle=orthogonalEdgeStyle;rounded=0;orthogonalLoop=1;jettySize=auto;html=1;entryX=0.5;entryY=0;entryDx=0;entryDy=0;" parent="1" source="CfZTuR_H0uaaWWNGpMhc-163" target="CfZTuR_H0uaaWWNGpMhc-171" edge="1">
          <mxGeometry relative="1" as="geometry" />
        </mxCell>
        <mxCell id="CfZTuR_H0uaaWWNGpMhc-163" value="&lt;div&gt;результат&amp;nbsp;&lt;span style=&quot;background-color: transparent; color: light-dark(rgb(0, 0, 0), rgb(255, 255, 255));&quot;&gt;← R_i_j1,&amp;nbsp;&lt;/span&gt;&lt;span style=&quot;background-color: transparent; color: light-dark(rgb(0, 0, 0), rgb(255, 255, 255));&quot;&gt;R_i_j2&lt;/span&gt;&lt;/div&gt;" style="rounded=0;whiteSpace=wrap;html=1;" parent="1" vertex="1">
          <mxGeometry x="-280" y="1083.5" width="240" height="30" as="geometry" />
        </mxCell>
        <mxCell id="CfZTuR_H0uaaWWNGpMhc-167" value="&lt;div&gt;результат :=&amp;nbsp;&lt;span style=&quot;background-color: transparent; color: light-dark(rgb(0, 0, 0), rgb(255, 255, 255));&quot;&gt;∅&lt;/span&gt;&lt;/div&gt;" style="rounded=0;whiteSpace=wrap;html=1;" parent="1" vertex="1">
          <mxGeometry x="-200" y="640" width="240" height="30" as="geometry" />
        </mxCell>
        <mxCell id="CfZTuR_H0uaaWWNGpMhc-169" value="" style="group" parent="1" vertex="1" connectable="0">
          <mxGeometry x="-280" y="1126" width="240" height="26" as="geometry" />
        </mxCell>
        <mxCell id="CfZTuR_H0uaaWWNGpMhc-170" value="" style="shape=loopLimit;whiteSpace=wrap;html=1;rotation=-180;" parent="CfZTuR_H0uaaWWNGpMhc-169" vertex="1">
          <mxGeometry width="240.00000000000003" height="26" as="geometry" />
        </mxCell>
        <mxCell id="CfZTuR_H0uaaWWNGpMhc-171" value="&lt;font style=&quot;font-size: 12px;&quot;&gt;конец Для&lt;/font&gt;" style="text;strokeColor=none;fillColor=none;html=1;align=center;verticalAlign=middle;whiteSpace=wrap;rounded=0;fontSize=16;" parent="CfZTuR_H0uaaWWNGpMhc-169" vertex="1">
          <mxGeometry x="36.774193548387096" y="0.0033333333333329662" width="166.45161290322582" height="17.333333333333332" as="geometry" />
        </mxCell>
        <mxCell id="CfZTuR_H0uaaWWNGpMhc-173" value="" style="group" parent="1" vertex="1" connectable="0">
          <mxGeometry x="-280" y="1168" width="240" height="26" as="geometry" />
        </mxCell>
        <mxCell id="CfZTuR_H0uaaWWNGpMhc-212" style="edgeStyle=orthogonalEdgeStyle;rounded=0;orthogonalLoop=1;jettySize=auto;html=1;" parent="CfZTuR_H0uaaWWNGpMhc-173" source="CfZTuR_H0uaaWWNGpMhc-174" edge="1">
          <mxGeometry relative="1" as="geometry">
            <mxPoint x="120" y="62" as="targetPoint" />
          </mxGeometry>
        </mxCell>
        <mxCell id="CfZTuR_H0uaaWWNGpMhc-174" value="" style="shape=loopLimit;whiteSpace=wrap;html=1;rotation=-180;" parent="CfZTuR_H0uaaWWNGpMhc-173" vertex="1">
          <mxGeometry width="240.00000000000003" height="26" as="geometry" />
        </mxCell>
        <mxCell id="CfZTuR_H0uaaWWNGpMhc-175" value="&lt;font style=&quot;font-size: 12px;&quot;&gt;конец Для&lt;/font&gt;" style="text;strokeColor=none;fillColor=none;html=1;align=center;verticalAlign=middle;whiteSpace=wrap;rounded=0;fontSize=16;" parent="CfZTuR_H0uaaWWNGpMhc-173" vertex="1">
          <mxGeometry x="36.774193548387096" y="0.0033333333333329662" width="166.45161290322582" height="17.333333333333332" as="geometry" />
        </mxCell>
        <mxCell id="CfZTuR_H0uaaWWNGpMhc-177" style="edgeStyle=orthogonalEdgeStyle;rounded=0;orthogonalLoop=1;jettySize=auto;html=1;entryX=0.5;entryY=0;entryDx=0;entryDy=0;exitX=0.5;exitY=0;exitDx=0;exitDy=0;" parent="1" source="CfZTuR_H0uaaWWNGpMhc-170" target="CfZTuR_H0uaaWWNGpMhc-175" edge="1">
          <mxGeometry relative="1" as="geometry">
            <mxPoint x="-161" y="1155" as="sourcePoint" />
          </mxGeometry>
        </mxCell>
        <mxCell id="CfZTuR_H0uaaWWNGpMhc-195" style="edgeStyle=orthogonalEdgeStyle;rounded=0;orthogonalLoop=1;jettySize=auto;html=1;entryX=0.5;entryY=0;entryDx=0;entryDy=0;exitX=1;exitY=0.5;exitDx=0;exitDy=0;" parent="1" source="CfZTuR_H0uaaWWNGpMhc-178" target="CfZTuR_H0uaaWWNGpMhc-180" edge="1">
          <mxGeometry relative="1" as="geometry">
            <Array as="points">
              <mxPoint x="-300" y="855" />
              <mxPoint x="-300" y="879" />
              <mxPoint x="-440" y="879" />
            </Array>
          </mxGeometry>
        </mxCell>
        <mxCell id="CfZTuR_H0uaaWWNGpMhc-216" value="Да" style="edgeLabel;html=1;align=center;verticalAlign=middle;resizable=0;points=[];" parent="CfZTuR_H0uaaWWNGpMhc-195" vertex="1" connectable="0">
          <mxGeometry x="-0.6461" relative="1" as="geometry">
            <mxPoint x="-9" y="-25" as="offset" />
          </mxGeometry>
        </mxCell>
        <mxCell id="CfZTuR_H0uaaWWNGpMhc-209" style="edgeStyle=orthogonalEdgeStyle;rounded=0;orthogonalLoop=1;jettySize=auto;html=1;entryX=0.5;entryY=0;entryDx=0;entryDy=0;exitX=0;exitY=0.5;exitDx=0;exitDy=0;" parent="1" source="CfZTuR_H0uaaWWNGpMhc-178" target="CfZTuR_H0uaaWWNGpMhc-198" edge="1">
          <mxGeometry relative="1" as="geometry">
            <Array as="points">
              <mxPoint x="-580" y="855" />
              <mxPoint x="-580" y="1230" />
              <mxPoint x="-79" y="1230" />
            </Array>
          </mxGeometry>
        </mxCell>
        <mxCell id="CfZTuR_H0uaaWWNGpMhc-178" value="НФ_тек == НФБК ?" style="rhombus;whiteSpace=wrap;html=1;" parent="1" vertex="1">
          <mxGeometry x="-560.99" y="834.75" width="240.99" height="40" as="geometry" />
        </mxCell>
        <mxCell id="CfZTuR_H0uaaWWNGpMhc-179" style="edgeStyle=orthogonalEdgeStyle;rounded=0;orthogonalLoop=1;jettySize=auto;html=1;entryX=0.5;entryY=0;entryDx=0;entryDy=0;" parent="1" source="CfZTuR_H0uaaWWNGpMhc-180" target="CfZTuR_H0uaaWWNGpMhc-182" edge="1">
          <mxGeometry relative="1" as="geometry" />
        </mxCell>
        <mxCell id="CfZTuR_H0uaaWWNGpMhc-180" value="наруш_мфз = Анализ(R_i)[1]" style="shape=process;whiteSpace=wrap;html=1;backgroundOutline=1;size=0.05;" parent="1" vertex="1">
          <mxGeometry x="-560" y="890.5" width="240" height="30.5" as="geometry" />
        </mxCell>
        <mxCell id="CfZTuR_H0uaaWWNGpMhc-181" style="edgeStyle=orthogonalEdgeStyle;rounded=0;orthogonalLoop=1;jettySize=auto;html=1;entryX=0.5;entryY=0;entryDx=0;entryDy=0;" parent="1" source="CfZTuR_H0uaaWWNGpMhc-182" target="CfZTuR_H0uaaWWNGpMhc-184" edge="1">
          <mxGeometry relative="1" as="geometry" />
        </mxCell>
        <mxCell id="CfZTuR_H0uaaWWNGpMhc-182" value="Для каждой мфз_j ∈ наруш_мфз" style="shape=loopLimit;whiteSpace=wrap;html=1;" parent="1" vertex="1">
          <mxGeometry x="-560" y="936" width="240" height="40" as="geometry" />
        </mxCell>
        <mxCell id="CfZTuR_H0uaaWWNGpMhc-183" style="edgeStyle=orthogonalEdgeStyle;rounded=0;orthogonalLoop=1;jettySize=auto;html=1;entryX=0.5;entryY=0;entryDx=0;entryDy=0;" parent="1" source="CfZTuR_H0uaaWWNGpMhc-184" target="CfZTuR_H0uaaWWNGpMhc-186" edge="1">
          <mxGeometry relative="1" as="geometry">
            <Array as="points">
              <mxPoint x="-486" y="1060" />
              <mxPoint x="-486" y="1060" />
            </Array>
          </mxGeometry>
        </mxCell>
        <mxCell id="CfZTuR_H0uaaWWNGpMhc-184" value="R_i_j1 := (мфз_j.детерминант ∪ мфз_j.зависимая, мфз_j);&lt;div&gt;R_i_j2 = (R_исх.атрибуты - (мфз_j&lt;span style=&quot;background-color: transparent; color: light-dark(rgb(0, 0, 0), rgb(255, 255, 255));&quot;&gt;.детерминант ∪&amp;nbsp;&lt;/span&gt;мфз_j&lt;span style=&quot;background-color: transparent; color: light-dark(rgb(0, 0, 0), rgb(255, 255, 255));&quot;&gt;.зависимая&lt;/span&gt;&lt;span style=&quot;background-color: transparent; color: light-dark(rgb(0, 0, 0), rgb(255, 255, 255));&quot;&gt;),&amp;nbsp;&lt;/span&gt;&lt;span style=&quot;background-color: transparent; color: light-dark(rgb(0, 0, 0), rgb(255, 255, 255));&quot;&gt;F_i -&amp;nbsp;&lt;/span&gt;&lt;span style=&quot;background-color: transparent; color: light-dark(rgb(0, 0, 0), rgb(255, 255, 255));&quot;&gt;мфз_j&lt;/span&gt;&lt;span style=&quot;background-color: transparent; color: light-dark(rgb(0, 0, 0), rgb(255, 255, 255));&quot;&gt;)&lt;/span&gt;&lt;/div&gt;" style="rounded=0;whiteSpace=wrap;html=1;" parent="1" vertex="1">
          <mxGeometry x="-560" y="991" width="240" height="79" as="geometry" />
        </mxCell>
        <mxCell id="i2k0hZBqYYZEicYqrPWJ-5" style="edgeStyle=orthogonalEdgeStyle;rounded=0;orthogonalLoop=1;jettySize=auto;html=1;entryX=0.5;entryY=0;entryDx=0;entryDy=0;" parent="1" source="CfZTuR_H0uaaWWNGpMhc-186" target="CfZTuR_H0uaaWWNGpMhc-189" edge="1">
          <mxGeometry relative="1" as="geometry" />
        </mxCell>
        <mxCell id="CfZTuR_H0uaaWWNGpMhc-186" value="&lt;div&gt;результат&amp;nbsp;&lt;span style=&quot;background-color: transparent; color: light-dark(rgb(0, 0, 0), rgb(255, 255, 255));&quot;&gt;← R_i_j1,&amp;nbsp;&lt;/span&gt;&lt;span style=&quot;background-color: transparent; color: light-dark(rgb(0, 0, 0), rgb(255, 255, 255));&quot;&gt;R_i_j2&lt;/span&gt;&lt;/div&gt;" style="rounded=0;whiteSpace=wrap;html=1;" parent="1" vertex="1">
          <mxGeometry x="-560" y="1083" width="240" height="30" as="geometry" />
        </mxCell>
        <mxCell id="CfZTuR_H0uaaWWNGpMhc-190" value="" style="group" parent="1" vertex="1" connectable="0">
          <mxGeometry x="-560" y="1180" width="240" height="26" as="geometry" />
        </mxCell>
        <mxCell id="CfZTuR_H0uaaWWNGpMhc-191" value="" style="shape=loopLimit;whiteSpace=wrap;html=1;rotation=-180;" parent="CfZTuR_H0uaaWWNGpMhc-190" vertex="1">
          <mxGeometry width="239.99999999999997" height="26" as="geometry" />
        </mxCell>
        <mxCell id="CfZTuR_H0uaaWWNGpMhc-210" style="edgeStyle=orthogonalEdgeStyle;rounded=0;orthogonalLoop=1;jettySize=auto;html=1;exitX=0.5;exitY=0;exitDx=0;exitDy=0;" parent="CfZTuR_H0uaaWWNGpMhc-190" source="CfZTuR_H0uaaWWNGpMhc-191" edge="1">
          <mxGeometry relative="1" as="geometry">
            <mxPoint x="120" y="50" as="targetPoint" />
          </mxGeometry>
        </mxCell>
        <mxCell id="CfZTuR_H0uaaWWNGpMhc-192" value="&lt;font style=&quot;font-size: 12px;&quot;&gt;конец Для&lt;/font&gt;" style="text;strokeColor=none;fillColor=none;html=1;align=center;verticalAlign=middle;whiteSpace=wrap;rounded=0;fontSize=16;" parent="CfZTuR_H0uaaWWNGpMhc-190" vertex="1">
          <mxGeometry x="36.774193548387096" y="0.0033333333333329662" width="166.4516129032258" height="17.333333333333332" as="geometry" />
        </mxCell>
        <mxCell id="CfZTuR_H0uaaWWNGpMhc-193" style="edgeStyle=orthogonalEdgeStyle;rounded=0;orthogonalLoop=1;jettySize=auto;html=1;entryX=0.5;entryY=0;entryDx=0;entryDy=0;exitX=0.5;exitY=0;exitDx=0;exitDy=0;" parent="1" source="CfZTuR_H0uaaWWNGpMhc-188" target="CfZTuR_H0uaaWWNGpMhc-192" edge="1">
          <mxGeometry relative="1" as="geometry">
            <mxPoint x="-458" y="1241.5" as="sourcePoint" />
          </mxGeometry>
        </mxCell>
        <mxCell id="CfZTuR_H0uaaWWNGpMhc-196" value="" style="group" parent="1" vertex="1" connectable="0">
          <mxGeometry x="-200" y="1260" width="240" height="26" as="geometry" />
        </mxCell>
        <mxCell id="CfZTuR_H0uaaWWNGpMhc-197" value="" style="shape=loopLimit;whiteSpace=wrap;html=1;rotation=-180;" parent="CfZTuR_H0uaaWWNGpMhc-196" vertex="1">
          <mxGeometry width="240.00000000000003" height="26" as="geometry" />
        </mxCell>
        <mxCell id="CfZTuR_H0uaaWWNGpMhc-198" value="&lt;font style=&quot;font-size: 12px;&quot;&gt;конец Пока&lt;/font&gt;" style="text;strokeColor=none;fillColor=none;html=1;align=center;verticalAlign=middle;whiteSpace=wrap;rounded=0;fontSize=16;" parent="CfZTuR_H0uaaWWNGpMhc-196" vertex="1">
          <mxGeometry x="36.765957446808514" y="1" width="167.48936170212764" height="20" as="geometry" />
        </mxCell>
        <mxCell id="CfZTuR_H0uaaWWNGpMhc-206" style="edgeStyle=orthogonalEdgeStyle;rounded=0;orthogonalLoop=1;jettySize=auto;html=1;entryX=0.5;entryY=0;entryDx=0;entryDy=0;exitX=0.5;exitY=0;exitDx=0;exitDy=0;" parent="1" source="CfZTuR_H0uaaWWNGpMhc-197" target="CfZTuR_H0uaaWWNGpMhc-91" edge="1">
          <mxGeometry relative="1" as="geometry">
            <mxPoint x="-30" y="1269" as="sourcePoint" />
            <mxPoint x="-17" y="1279" as="targetPoint" />
            <Array as="points" />
          </mxGeometry>
        </mxCell>
        <mxCell id="CfZTuR_H0uaaWWNGpMhc-217" value="Да" style="edgeLabel;html=1;align=center;verticalAlign=middle;resizable=0;points=[];" parent="1" vertex="1" connectable="0">
          <mxGeometry x="-60.500000000000014" y="809" as="geometry">
            <mxPoint x="32" y="-4" as="offset" />
          </mxGeometry>
        </mxCell>
        <mxCell id="CfZTuR_H0uaaWWNGpMhc-218" value="Да" style="edgeLabel;html=1;align=center;verticalAlign=middle;resizable=0;points=[];" parent="1" vertex="1" connectable="0">
          <mxGeometry x="258" y="764" as="geometry">
            <mxPoint x="-7" y="1" as="offset" />
          </mxGeometry>
        </mxCell>
        <mxCell id="CfZTuR_H0uaaWWNGpMhc-219" value="Да" style="edgeLabel;html=1;align=center;verticalAlign=middle;resizable=0;points=[];" parent="1" vertex="1" connectable="0">
          <mxGeometry x="505" y="722" as="geometry">
            <mxPoint x="6" y="8" as="offset" />
          </mxGeometry>
        </mxCell>
        <mxCell id="CfZTuR_H0uaaWWNGpMhc-222" value="Нет" style="edgeLabel;html=1;align=center;verticalAlign=middle;resizable=0;points=[];" parent="1" vertex="1" connectable="0">
          <mxGeometry x="-427" y="813.75" as="geometry">
            <mxPoint x="-3" y="-9" as="offset" />
          </mxGeometry>
        </mxCell>
        <mxCell id="CfZTuR_H0uaaWWNGpMhc-223" value="Нет" style="edgeLabel;html=1;align=center;verticalAlign=middle;resizable=0;points=[];" parent="1" vertex="1" connectable="0">
          <mxGeometry x="134" y="727" as="geometry">
            <mxPoint x="-5" y="3" as="offset" />
          </mxGeometry>
        </mxCell>
        <mxCell id="CfZTuR_H0uaaWWNGpMhc-224" value="Нет" style="edgeLabel;html=1;align=center;verticalAlign=middle;resizable=0;points=[];" parent="1" vertex="1" connectable="0">
          <mxGeometry x="-567" y="830.5" as="geometry">
            <mxPoint x="-3" y="13" as="offset" />
          </mxGeometry>
        </mxCell>
        <mxCell id="i2k0hZBqYYZEicYqrPWJ-1" value="" style="group" parent="1" vertex="1" connectable="0">
          <mxGeometry x="53" y="400" width="187" height="61" as="geometry" />
        </mxCell>
        <mxCell id="CfZTuR_H0uaaWWNGpMhc-82" value="" style="endArrow=none;html=1;rounded=0;" parent="i2k0hZBqYYZEicYqrPWJ-1" edge="1">
          <mxGeometry width="50" height="50" relative="1" as="geometry">
            <mxPoint y="61" as="sourcePoint" />
            <mxPoint y="1" as="targetPoint" />
          </mxGeometry>
        </mxCell>
        <mxCell id="CfZTuR_H0uaaWWNGpMhc-87" value="&lt;span style=&quot;color: rgba(0, 0, 0, 0); font-family: monospace; font-size: 0px; text-align: start; background-color: rgb(236, 236, 236);&quot;&gt;%3CmxGraphModel%3E%3Croot%3E%3CmxCell%20id%3D%220%22%2F%3E%3CmxCell%20id%3D%221%22%20parent%3D%220%22%2F%3E%3CmxCell%20id%3D%222%22%20value%3D%22R_%D0%B8%D1%81%D1%85%20%3D%20%7B%26lt%3Bdiv%26gt%3B%26lt%3Bspan%20style%3D%26quot%3Bcolor%3A%20rgba(0%2C%200%2C%200%2C%200)%3B%20font-family%3A%20monospace%3B%20font-size%3A%200px%3B%20text-align%3A%20start%3B%26quot%3B%26gt%3B%253CmxGraphModel%253E%253Croot%253E%253CmxCell%2520id%253D%25220%2522%252F%253E%253CmxCell%2520id%253D%25221%2522%2520parent%253D%25220%2522%252F%253E%253CmxCell%2520id%253D%25222%2522%2520value%253D%2522%2522%2520style%253D%2522endArrow%253Dnone%253Bhtml%253D1%253Brounded%253D0%253B%2522%2520edge%253D%25221%2522%2520parent%253D%25221%2522%253E%253CmxGeometry%2520width%253D%252250%2522%2520height%253D%252250%2522%2520relative%253D%25221%2522%2520as%253D%2522geometry%2522%253E%253CmxPoint%2520x%253D%2522350%2522%2520y%253D%2522450%2522%2520as%253D%2522sourcePoint%2522%252F%253E%253CmxPoint%2520x%253D%2522240%2522%2520y%253D%2522450%2522%2520as%253D%2522targetPoint%2522%252F%253E%253C%252FmxGeometry%253E%253C%252FmxCell%253E%253C%252Froot%253E%253C%252FmxGraphModel%253E%26lt%3B%2Fspan%26gt%3B%26lt%3Bspan%20style%3D%26quot%3Btext-wrap-mode%3A%20wrap%3B%20background-color%3A%20transparent%3B%20color%3A%20light-dark(rgb(0%2C%200%2C%200)%2C%20rgb(255%2C%20255%2C%20255))%3B%26quot%3B%26gt%3BX%20-%20%D0%BC%D0%BD-%D0%B2%D0%BE%20%D0%B0%D1%82%D1%80%D0%B8%D0%B1%D1%83%D1%82%D0%BE%D0%B2%3B%26lt%3B%2Fspan%26gt%3B%26lt%3B%2Fdiv%26gt%3B%26lt%3Bdiv%20style%3D%26quot%3Btext-wrap-mode%3A%20wrap%3B%26quot%3B%26gt%3BF%20-%20%D0%BC%D0%BD-%D0%B2%D0%BE%20%D0%A4%D0%97%26lt%3B%2Fdiv%26gt%3B%26lt%3Bdiv%26gt%3B%7D%26lt%3B%2Fdiv%26gt%3B%22%20style%3D%22text%3Bhtml%3D1%3Balign%3Dcenter%3BverticalAlign%3Dmiddle%3Bresizable%3D0%3Bpoints%3D%5B%5D%3Bautosize%3D1%3BstrokeColor%3Dnone%3BfillColor%3Dnone%3B%22%20vertex%3D%221%22%20parent%3D%221%22%3E%3CmxGeometry%20x%3D%22111.25%22%20y%3D%22730%22%20width%3D%22140%22%20height%3D%2270%22%20as%3D%22geometry%22%2F%3E%3C%2FmxCell%3E%3C%2Froot%3E%3C%2FmxGraphModel%3E&lt;/span&gt;" style="edgeLabel;html=1;align=center;verticalAlign=middle;resizable=0;points=[];" parent="CfZTuR_H0uaaWWNGpMhc-82" vertex="1" connectable="0">
          <mxGeometry x="0.2667" y="-3" relative="1" as="geometry">
            <mxPoint as="offset" />
          </mxGeometry>
        </mxCell>
        <mxCell id="CfZTuR_H0uaaWWNGpMhc-88" value="&lt;span style=&quot;color: rgba(0, 0, 0, 0); font-family: monospace; font-size: 0px; text-align: start; background-color: rgb(236, 236, 236);&quot;&gt;%3CmxGraphModel%3E%3Croot%3E%3CmxCell%20id%3D%220%22%2F%3E%3CmxCell%20id%3D%221%22%20parent%3D%220%22%2F%3E%3CmxCell%20id%3D%222%22%20value%3D%22R_%D0%B8%D1%81%D1%85%20%3D%20%7B%26lt%3Bdiv%26gt%3B%26lt%3Bspan%20style%3D%26quot%3Bcolor%3A%20rgba(0%2C%200%2C%200%2C%200)%3B%20font-family%3A%20monospace%3B%20font-size%3A%200px%3B%20text-align%3A%20start%3B%26quot%3B%26gt%3B%253CmxGraphModel%253E%253Croot%253E%253CmxCell%2520id%253D%25220%2522%252F%253E%253CmxCell%2520id%253D%25221%2522%2520parent%253D%25220%2522%252F%253E%253CmxCell%2520id%253D%25222%2522%2520value%253D%2522%2522%2520style%253D%2522endArrow%253Dnone%253Bhtml%253D1%253Brounded%253D0%253B%2522%2520edge%253D%25221%2522%2520parent%253D%25221%2522%253E%253CmxGeometry%2520width%253D%252250%2522%2520height%253D%252250%2522%2520relative%253D%25221%2522%2520as%253D%2522geometry%2522%253E%253CmxPoint%2520x%253D%2522350%2522%2520y%253D%2522450%2522%2520as%253D%2522sourcePoint%2522%252F%253E%253CmxPoint%2520x%253D%2522240%2522%2520y%253D%2522450%2522%2520as%253D%2522targetPoint%2522%252F%253E%253C%252FmxGeometry%253E%253C%252FmxCell%253E%253C%252Froot%253E%253C%252FmxGraphModel%253E%26lt%3B%2Fspan%26gt%3B%26lt%3Bspan%20style%3D%26quot%3Btext-wrap-mode%3A%20wrap%3B%20background-color%3A%20transparent%3B%20color%3A%20light-dark(rgb(0%2C%200%2C%200)%2C%20rgb(255%2C%20255%2C%20255))%3B%26quot%3B%26gt%3BX%20-%20%D0%BC%D0%BD-%D0%B2%D0%BE%20%D0%B0%D1%82%D1%80%D0%B8%D0%B1%D1%83%D1%82%D0%BE%D0%B2%3B%26lt%3B%2Fspan%26gt%3B%26lt%3B%2Fdiv%26gt%3B%26lt%3Bdiv%20style%3D%26quot%3Btext-wrap-mode%3A%20wrap%3B%26quot%3B%26gt%3BF%20-%20%D0%BC%D0%BD-%D0%B2%D0%BE%20%D0%A4%D0%97%26lt%3B%2Fdiv%26gt%3B%26lt%3Bdiv%26gt%3B%7D%26lt%3B%2Fdiv%26gt%3B%22%20style%3D%22text%3Bhtml%3D1%3Balign%3Dcenter%3BverticalAlign%3Dmiddle%3Bresizable%3D0%3Bpoints%3D%5B%5D%3Bautosize%3D1%3BstrokeColor%3Dnone%3BfillColor%3Dnone%3B%22%20vertex%3D%221%22%20parent%3D%221%22%3E%3CmxGeometry%20x%3D%22111.25%22%20y%3D%22730%22%20width%3D%22140%22%20height%3D%2270%22%20as%3D%22geometry%22%2F%3E%3C%2FmxCell%3E%3C%2Froot%3E%3C%2FmxGraphModel%3E&lt;/span&gt;" style="edgeLabel;html=1;align=center;verticalAlign=middle;resizable=0;points=[];" parent="CfZTuR_H0uaaWWNGpMhc-82" vertex="1" connectable="0">
          <mxGeometry x="0.1667" y="3" relative="1" as="geometry">
            <mxPoint as="offset" />
          </mxGeometry>
        </mxCell>
        <mxCell id="CfZTuR_H0uaaWWNGpMhc-89" value="&lt;span style=&quot;color: rgba(0, 0, 0, 0); font-family: monospace; font-size: 0px; text-align: start; background-color: rgb(236, 236, 236);&quot;&gt;%3CmxGraphModel%3E%3Croot%3E%3CmxCell%20id%3D%220%22%2F%3E%3CmxCell%20id%3D%221%22%20parent%3D%220%22%2F%3E%3CmxCell%20id%3D%222%22%20value%3D%22R_%D0%B8%D1%81%D1%85%20%3D%20%7B%26lt%3Bdiv%26gt%3B%26lt%3Bspan%20style%3D%26quot%3Bcolor%3A%20rgba(0%2C%200%2C%200%2C%200)%3B%20font-family%3A%20monospace%3B%20font-size%3A%200px%3B%20text-align%3A%20start%3B%26quot%3B%26gt%3B%253CmxGraphModel%253E%253Croot%253E%253CmxCell%2520id%253D%25220%2522%252F%253E%253CmxCell%2520id%253D%25221%2522%2520parent%253D%25220%2522%252F%253E%253CmxCell%2520id%253D%25222%2522%2520value%253D%2522%2522%2520style%253D%2522endArrow%253Dnone%253Bhtml%253D1%253Brounded%253D0%253B%2522%2520edge%253D%25221%2522%2520parent%253D%25221%2522%253E%253CmxGeometry%2520width%253D%252250%2522%2520height%253D%252250%2522%2520relative%253D%25221%2522%2520as%253D%2522geometry%2522%253E%253CmxPoint%2520x%253D%2522350%2522%2520y%253D%2522450%2522%2520as%253D%2522sourcePoint%2522%252F%253E%253CmxPoint%2520x%253D%2522240%2522%2520y%253D%2522450%2522%2520as%253D%2522targetPoint%2522%252F%253E%253C%252FmxGeometry%253E%253C%252FmxCell%253E%253C%252Froot%253E%253C%252FmxGraphModel%253E%26lt%3B%2Fspan%26gt%3B%26lt%3Bspan%20style%3D%26quot%3Btext-wrap-mode%3A%20wrap%3B%20background-color%3A%20transparent%3B%20color%3A%20light-dark(rgb(0%2C%200%2C%200)%2C%20rgb(255%2C%20255%2C%20255))%3B%26quot%3B%26gt%3BX%20-%20%D0%BC%D0%BD-%D0%B2%D0%BE%20%D0%B0%D1%82%D1%80%D0%B8%D0%B1%D1%83%D1%82%D0%BE%D0%B2%3B%26lt%3B%2Fspan%26gt%3B%26lt%3B%2Fdiv%26gt%3B%26lt%3Bdiv%20style%3D%26quot%3Btext-wrap-mode%3A%20wrap%3B%26quot%3B%26gt%3BF%20-%20%D0%BC%D0%BD-%D0%B2%D0%BE%20%D0%A4%D0%97%26lt%3B%2Fdiv%26gt%3B%26lt%3Bdiv%26gt%3B%7D%26lt%3B%2Fdiv%26gt%3B%22%20style%3D%22text%3Bhtml%3D1%3Balign%3Dcenter%3BverticalAlign%3Dmiddle%3Bresizable%3D0%3Bpoints%3D%5B%5D%3Bautosize%3D1%3BstrokeColor%3Dnone%3BfillColor%3Dnone%3B%22%20vertex%3D%221%22%20parent%3D%221%22%3E%3CmxGeometry%20x%3D%22111.25%22%20y%3D%22730%22%20width%3D%22140%22%20height%3D%2270%22%20as%3D%22geometry%22%2F%3E%3C%2FmxCell%3E%3C%2Froot%3E%3C%2FmxGraphModel%3E&lt;/span&gt;" style="edgeLabel;html=1;align=center;verticalAlign=middle;resizable=0;points=[];" parent="CfZTuR_H0uaaWWNGpMhc-82" vertex="1" connectable="0">
          <mxGeometry x="0.019" y="-2" relative="1" as="geometry">
            <mxPoint as="offset" />
          </mxGeometry>
        </mxCell>
        <mxCell id="CfZTuR_H0uaaWWNGpMhc-83" value="" style="endArrow=none;html=1;rounded=0;" parent="i2k0hZBqYYZEicYqrPWJ-1" edge="1">
          <mxGeometry width="50" height="50" relative="1" as="geometry">
            <mxPoint x="187" y="61" as="sourcePoint" />
            <mxPoint y="61" as="targetPoint" />
          </mxGeometry>
        </mxCell>
        <mxCell id="CfZTuR_H0uaaWWNGpMhc-84" value="" style="endArrow=none;html=1;rounded=0;" parent="i2k0hZBqYYZEicYqrPWJ-1" edge="1">
          <mxGeometry width="50" height="50" relative="1" as="geometry">
            <mxPoint x="187" y="1" as="sourcePoint" />
            <mxPoint y="1" as="targetPoint" />
          </mxGeometry>
        </mxCell>
        <mxCell id="CfZTuR_H0uaaWWNGpMhc-90" value="&lt;span style=&quot;text-wrap-mode: nowrap;&quot;&gt;R_исх = (&lt;/span&gt;&lt;span style=&quot;text-wrap-mode: nowrap; background-color: transparent; color: rgba(0, 0, 0, 0); font-family: monospace; font-size: 0px; text-align: start;&quot;&gt;%3CmxGraphModel%3E%3Croot%3E%3CmxCell%20id%3D%220%22%2F%3E%3CmxCell%20id%3D%221%22%20parent%3D%220%22%2F%3E%3CmxCell%20id%3D%222%22%20value%3D%22%22%20style%3D%22endArrow%3Dnone%3Bhtml%3D1%3Brounded%3D0%3B%22%20edge%3D%221%22%20parent%3D%221%22%3E%3CmxGeometry%20width%3D%2250%22%20height%3D%2250%22%20relative%3D%221%22%20as%3D%22geometry%22%3E%3CmxPoint%20x%3D%22350%22%20y%3D%22450%22%20as%3D%22sourcePoint%22%2F%3E%3CmxPoint%20x%3D%22240%22%20y%3D%22450%22%20as%3D%22targetPoint%22%2F%3E%3C%2FmxGeometry%3E%3C%2FmxCell%3E%3C%2Froot%3E%3C%2FmxGraphModel%3&lt;/span&gt;&lt;span style=&quot;color: light-dark(rgb(0, 0, 0), rgb(255, 255, 255)); background-color: transparent;&quot;&gt;X - мн-во атрибутов;&amp;nbsp;&lt;/span&gt;&lt;div&gt;&lt;span style=&quot;color: light-dark(rgb(0, 0, 0), rgb(255, 255, 255)); background-color: transparent;&quot;&gt;F - мн-во ФЗ&lt;span style=&quot;text-wrap-mode: nowrap;&quot;&gt;)&lt;/span&gt;&lt;/span&gt;&lt;/div&gt;" style="text;html=1;align=center;verticalAlign=middle;whiteSpace=wrap;rounded=0;" parent="i2k0hZBqYYZEicYqrPWJ-1" vertex="1">
          <mxGeometry width="180" height="61" as="geometry" />
        </mxCell>
        <mxCell id="i2k0hZBqYYZEicYqrPWJ-2" value="Начало" style="rounded=1;whiteSpace=wrap;html=1;arcSize=100;absoluteArcSize=1;" parent="1" vertex="1">
          <mxGeometry x="-200" y="400" width="240" height="20" as="geometry" />
        </mxCell>
        <mxCell id="i2k0hZBqYYZEicYqrPWJ-4" value="" style="group" parent="1" vertex="1" connectable="0">
          <mxGeometry x="-560" y="1130" width="240" height="26" as="geometry" />
        </mxCell>
        <mxCell id="CfZTuR_H0uaaWWNGpMhc-188" value="" style="shape=loopLimit;whiteSpace=wrap;html=1;rotation=-180;container=0;" parent="i2k0hZBqYYZEicYqrPWJ-4" vertex="1">
          <mxGeometry y="1" width="240.00000000000003" height="26" as="geometry" />
        </mxCell>
        <mxCell id="CfZTuR_H0uaaWWNGpMhc-189" value="&lt;font style=&quot;font-size: 12px;&quot;&gt;конец Для&lt;/font&gt;" style="text;strokeColor=none;fillColor=none;html=1;align=center;verticalAlign=middle;whiteSpace=wrap;rounded=0;fontSize=16;container=0;" parent="i2k0hZBqYYZEicYqrPWJ-4" vertex="1">
          <mxGeometry x="36.774193548387075" y="1.0033333333333303" width="166.45161290322582" height="17.333333333333332" as="geometry" />
        </mxCell>
        <mxCell id="i2k0hZBqYYZEicYqrPWJ-6" value="Конец" style="rounded=1;whiteSpace=wrap;html=1;arcSize=100;absoluteArcSize=1;" parent="1" vertex="1">
          <mxGeometry x="-200" y="1350" width="240" height="20" as="geometry" />
        </mxCell>
      </root>
    </mxGraphModel>
  </diagram>
</mxfile>
